<svg width="184" height="37" viewBox="0 0 184 37" fill="none" xmlns="http://www.w3.org/2000/svg">
    <g clip-path="url(#clip0_31_1919)">
    <path d="M104.419 0L89.1093 27.3095H80.0977L95.1449 0H104.419Z" fill="#BDF70F"/>
    <path d="M122.44 25.5476V33.1238H118.242V9.69044H122.09V11.8047C129.26 5.25264 138.61 12.3223 136.076 21.3961C134.42 27.3352 127.075 29.688 122.44 25.5476ZM126.776 13.0858C120.708 13.6437 121.061 22.8937 126.069 23.7453C134.136 25.1181 134.136 12.4104 126.776 13.0858Z" fill="#BDF70F"/>
    <path d="M108.618 13.5667H99.8691V37H108.618V13.5667Z" fill="#BDF70F"/>
    <path d="M61.9027 2.81909V11.1C62.6795 10.7623 63.2411 10.1714 64.0581 9.83367C68.128 8.15987 74.1491 10.2888 74.1491 15.2405V27.1334H69.7765V15.7691C69.7765 15.5562 69.1638 14.5137 68.9741 14.2862C66.9063 11.7791 61.9027 13.4052 61.9027 16.4739V27.1334H57.7051V2.81909H61.9027Z" fill="#BDF70F"/>
    <path d="M153.147 27.3095C152.669 27.1627 152.961 25.4742 152.884 25.019C147.651 30.6167 139.077 26.6745 138.534 19.3002C137.924 11.0302 146.841 6.27309 152.884 11.9809V9.69045H156.648L156.874 9.95474C156.878 10.0245 156.735 10.0869 156.735 10.1309V26.869C156.735 26.9314 157.045 27.0636 156.648 27.3095H153.147ZM151.247 22.49C153.646 20.1958 153.125 14.9798 149.97 13.5923C144.952 11.3863 141.17 16.672 143.406 21.2603C144.814 24.1564 148.989 24.6483 151.247 22.4863V22.49Z" fill="#BDF70F"/>
    <path d="M33.9099 27.1333V25.019L31.6926 26.7479C24.0851 30.0661 17.5279 22.8129 20.0078 15.156C21.9042 9.305 29.7123 7.49905 33.9099 11.9772V9.68675H37.7611V27.1296H33.9136L33.9099 27.1333ZM27.918 13.0821C21.875 13.9006 22.4293 24.5565 29.4278 23.7636C35.6641 23.0589 35.0222 12.1167 27.918 13.0821Z" fill="#BDF70F"/>
    <path d="M13.9638 16.3857C13.0995 12.5242 8.09224 11.97 5.8202 14.9725C4.59482 16.595 4.5 19.5718 5.46644 21.3301C7.43944 24.9236 13.0886 24.5089 14.1389 20.4381L17.9864 21.8476C17.3263 24.4097 14.8974 26.5644 12.392 27.2251C4.69694 29.2403 -1.6451 22.4349 1.18493 14.8844C3.94202 7.52483 15.284 7.27889 17.8004 14.8661L13.9638 16.3821V16.3857Z" fill="#BDF70F"/>
    <path d="M45.8671 15.2663C46.7388 16.1839 50.579 16.8483 52.0524 17.5825C56.8116 19.9574 55.4951 26.102 50.568 27.2546C47.4681 27.9777 43.3434 27.6253 41.2647 24.9237C41.024 24.6117 40.0977 23.2536 40.3967 22.9122L43.9561 21.6569C44.3901 24.4502 50.4003 25.2908 50.6738 22.4204C50.8817 20.2363 45.6666 19.4692 44.1166 18.7093C41.8336 17.5898 40.5244 15.5966 41.3121 12.9978C42.6214 8.67382 49.7001 8.2517 52.7963 10.6743C53.2631 11.0377 54.7511 12.6528 54.215 13.1263C54.0837 13.2438 51.1151 14.411 50.9364 14.4184L50.6227 14.2752C49.9189 11.1515 43.5149 12.7923 45.8708 15.2663H45.8671Z" fill="#BDF70F"/>
    <path d="M177.027 9.69043L168.016 33.1238H164.256L172.83 9.69043H177.027Z" fill="#BDF70F"/>
    <path d="M163.118 9.69043L166.699 20.9005C166.743 21.5099 165.576 24.4647 165.262 25.2392C165.106 25.6247 164.989 26.2266 164.61 26.4285L159.008 9.69043H163.118Z" fill="#BDF70F"/>
    <path d="M180.354 2.81904C181.265 2.55476 181.353 3.71835 181.674 4.40476C181.758 4.58829 181.674 4.86358 182.013 4.76081C182.246 4.68739 182.483 2.32718 183.501 2.82271V5.81795H182.976L182.888 3.87985C182.669 3.87251 182.392 6.04553 181.484 5.12053C181.196 4.82688 181.28 4.0487 180.879 3.88353V5.82162H180.354V2.81904Z" fill="#BDF70F"/>
    <path d="M178.602 3.34767H177.727L177.829 2.81543L180.002 2.8191V3.34767H179.127V5.81434H178.602V3.34767Z" fill="#BDF70F"/>
    </g>
    <defs>
    <clipPath id="clip0_31_1919">
    <rect width="183" height="37" fill="white" transform="translate(0.5)"/>
    </clipPath>
    </defs>
</svg>
